<?xml version="1.0" encoding="utf-8"?>
<!-- Generator: Adobe Illustrator 24.0.2, SVG Export Plug-In . SVG Version: 6.00 Build 0)  -->
<svg version="1.1" id="Layer_2" xmlns="http://www.w3.org/2000/svg" xmlns:xlink="http://www.w3.org/1999/xlink" x="0px" y="0px"
	 viewBox="0 0 200 200" style="enable-background:new 0 0 200 200;" xml:space="preserve">
<style type="text/css">
	.st0{fill:#EEAD54;}
	.st1{fill:#442624;}
</style>
<g>
	<path class="st0" d="M39.64,131.17c0,0,2.57-31.65,22.07-41.93s31.71-20.14,52.07-12.86s42,21.43,48.64,53.14L39.64,131.17z"/>
	<g>
		<path class="st1" d="M100,80.49c27.29,0,50.06,19.73,54.78,45.68H45.22C49.94,100.23,72.71,80.49,100,80.49 M100,70.49
			c-36.27,0-65.68,29.4-65.68,65.68h131.36C165.68,99.89,136.27,70.49,100,70.49L100,70.49z"/>
	</g>
	<g>
		<path class="st1" d="M174.23,126.17H25.77c-2.76,0-5,2.24-5,5l0,0c0,2.76,2.24,5,5,5h148.46c2.76,0,5-2.24,5-5l0,0
			C179.23,128.41,176.99,126.17,174.23,126.17z"/>
	</g>
	<g>
		<path class="st1" d="M140.29,113.75h-48.3c-2.76,0-5,2.24-5,5v0c0,2.76,2.24,5,5,5h48.3c2.76,0,5-2.24,5-5v0
			C145.29,115.98,143.05,113.75,140.29,113.75z"/>
	</g>
	<g>
		<path class="st1" d="M107.02,72.63H92.98v-1.79c0-3.88,3.14-7.02,7.02-7.02h0c3.88,0,7.02,3.14,7.02,7.02V72.63z"/>
	</g>
</g>
<g>
	<g>
		<path class="st0" d="M-135.11,228.98c-16.14,0-29.28-13.13-29.28-29.28V174.7h91.89v25.01c0,16.14-13.13,29.28-29.28,29.28
			H-135.11z"/>
		<path class="st1" d="M-77.49,179.7v20.01c0,13.39-10.89,24.28-24.28,24.28h-33.34c-13.39,0-24.28-10.89-24.28-24.28V179.7H-77.49
			 M-67.49,169.7h-101.89v30.01c0,18.93,15.35,34.28,34.28,34.28h33.34c18.93,0,34.28-15.35,34.28-34.28V169.7L-67.49,169.7z"/>
	</g>
	<g>
		<path class="st1" d="M-67.86,181.91h-101.16c-3.37,0-6.11-2.73-6.11-6.11v0c0-3.37,2.73-6.11,6.11-6.11h101.16
			c3.37,0,6.11,2.73,6.11,6.11v0C-61.75,179.18-64.48,181.91-67.86,181.91z"/>
	</g>
	<g>
		<path class="st1" d="M-93.13,150.88c2.69,0,4.88,2.19,4.88,4.88v16.16h-60.36v-16.16c0-2.69,2.19-4.88,4.88-4.88H-93.13
			 M-93.13,140.88h-50.61c-8.22,0-14.88,6.66-14.88,14.88v26.16h80.36v-26.16C-78.26,147.53-84.92,140.88-93.13,140.88
			L-93.13,140.88z"/>
	</g>
</g>
<g>
	<g>
		<g>
			<path class="st1" d="M-91.45-104.21c2.46,0,4.46,2,4.46,4.46v12.18h-8.93v-12.18C-95.92-102.21-93.92-104.21-91.45-104.21
				 M-91.45-114.21L-91.45-114.21c-7.99,0-14.46,6.48-14.46,14.46v22.18h28.93v-22.18C-76.99-107.74-83.47-114.21-91.45-114.21
				L-91.45-114.21z"/>
		</g>
	</g>
	<g>
		<path class="st0" d="M-123.37-5c-1.71,0-3.31-0.68-4.49-1.92c-1.18-1.24-1.79-2.87-1.7-4.58l3.57-72.96
			c0.05-1.02,0.89-1.82,1.91-1.82h65.25c1.02,0,1.87,0.8,1.92,1.82l3.57,72.96c0.08,1.71-0.52,3.34-1.7,4.58S-57.82-5-59.53-5
			H-123.37z"/>
		<g>
			<path class="st1" d="M-61.76-81.29l3.42,70.03c0.02,0.34-0.09,0.64-0.33,0.88C-58.9-10.13-59.19-10-59.53-10h-63.84
				c-0.34,0-0.63-0.13-0.87-0.37c-0.23-0.25-0.35-0.54-0.33-0.88l3.42-70.03H-61.76 M-58.83-91.29h-65.25
				c-3.69,0-6.73,2.89-6.91,6.58l-3.57,72.96C-134.87-5.35-129.77,0-123.37,0h63.84c6.4,0,11.5-5.35,11.18-11.74l-3.57-72.96
				C-52.1-88.39-55.14-91.29-58.83-91.29L-58.83-91.29z"/>
		</g>
	</g>
	<path class="st1" d="M-71.77-14.07h-15.81c-2.76,0-5-2.24-5-5v0c0-2.76,2.24-5,5-5h15.81c2.76,0,5,2.24,5,5v0
		C-66.77-16.31-69.01-14.07-71.77-14.07z"/>
</g>
</svg>
