<?xml version="1.0" encoding="utf-8"?>
<!-- Generator: Adobe Illustrator 24.0.2, SVG Export Plug-In . SVG Version: 6.00 Build 0)  -->
<svg version="1.1" id="Layer_2" xmlns="http://www.w3.org/2000/svg" xmlns:xlink="http://www.w3.org/1999/xlink" x="0px" y="0px"
	 viewBox="0 0 200 200" style="enable-background:new 0 0 200 200;" xml:space="preserve">
<style type="text/css">
	.st0{fill:#EEAD54;}
	.st1{fill:#442624;}
</style>
<g>
	<path class="st0" d="M-194.93,86.35c0,0,2.57-31.65,22.07-41.93s31.71-20.14,52.07-12.86s42,21.43,48.64,53.14L-194.93,86.35z"/>
	<g>
		<path class="st1" d="M-134.57,35.67c27.29,0,50.06,19.73,54.78,45.68h-109.56C-184.63,55.4-161.86,35.67-134.57,35.67
			 M-134.57,25.67c-36.27,0-65.68,29.4-65.68,65.68h131.36C-68.89,55.07-98.3,25.67-134.57,25.67L-134.57,25.67z"/>
	</g>
	<g>
		<path class="st1" d="M-60.34,81.35H-208.8c-2.76,0-5,2.24-5,5v0c0,2.76,2.24,5,5,5h148.46c2.76,0,5-2.24,5-5v0
			C-55.34,83.59-57.58,81.35-60.34,81.35z"/>
	</g>
	<g>
		<path class="st1" d="M-94.29,68.92h-48.3c-2.76,0-5,2.24-5,5v0c0,2.76,2.24,5,5,5h48.3c2.76,0,5-2.24,5-5v0
			C-89.29,71.16-91.52,68.92-94.29,68.92z"/>
	</g>
	<g>
		<path class="st1" d="M-127.55,27.81h-14.04v-1.79c0-3.88,3.14-7.02,7.02-7.02h0c3.88,0,7.02,3.14,7.02,7.02V27.81z"/>
	</g>
</g>
<g>
	<g>
		<path class="st0" d="M-174.78,217.41c-16.14,0-29.28-13.13-29.28-29.28v-25.01h91.89v25.01c0,16.14-13.13,29.28-29.28,29.28
			H-174.78z"/>
		<path class="st1" d="M-117.16,168.13v20.01c0,13.39-10.89,24.28-24.28,24.28h-33.34c-13.39,0-24.28-10.89-24.28-24.28v-20.01
			H-117.16 M-107.16,158.13h-101.89v30.01c0,18.93,15.35,34.28,34.28,34.28h33.34c18.93,0,34.28-15.35,34.28-34.28V158.13
			L-107.16,158.13z"/>
	</g>
	<g>
		<path class="st1" d="M-107.53,170.34h-101.16c-3.37,0-6.11-2.73-6.11-6.11v0c0-3.37,2.73-6.11,6.11-6.11h101.16
			c3.37,0,6.11,2.73,6.11,6.11v0C-101.42,167.61-104.15,170.34-107.53,170.34z"/>
	</g>
	<g>
		<path class="st1" d="M-132.8,139.3c2.69,0,4.88,2.19,4.88,4.88v16.16h-60.36v-16.16c0-2.69,2.19-4.88,4.88-4.88H-132.8
			 M-132.8,129.3h-50.61c-8.22,0-14.88,6.66-14.88,14.88v26.16h80.36v-26.16C-117.93,135.96-124.59,129.3-132.8,129.3L-132.8,129.3z
			"/>
	</g>
</g>
<g>
	<g>
		<g>
			<path class="st1" d="M100,52.89c2.46,0,4.46,2,4.46,4.46v12.18h-8.93V57.36C95.54,54.9,97.54,52.89,100,52.89 M100,42.89
				L100,42.89c-7.99,0-14.46,6.48-14.46,14.46v22.18h28.93V57.36C114.46,49.37,107.99,42.89,100,42.89L100,42.89z"/>
		</g>
	</g>
	<g>
		<path class="st0" d="M68.08,152.11c-1.71,0-3.31-0.68-4.49-1.92c-1.18-1.24-1.79-2.87-1.7-4.58l3.57-72.96
			c0.05-1.02,0.89-1.82,1.91-1.82h65.25c1.02,0,1.87,0.8,1.92,1.82l3.57,72.96c0.08,1.71-0.52,3.34-1.7,4.58s-2.78,1.92-4.49,1.92
			H68.08z"/>
		<g>
			<path class="st1" d="M129.69,75.82l3.42,70.03c0.02,0.34-0.09,0.64-0.33,0.88c-0.23,0.25-0.53,0.37-0.87,0.37H68.08
				c-0.34,0-0.63-0.13-0.87-0.37c-0.23-0.25-0.35-0.54-0.33-0.88l3.42-70.03H129.69 M132.63,65.82H67.37
				c-3.69,0-6.73,2.89-6.91,6.58l-3.57,72.96c-0.31,6.39,4.79,11.74,11.18,11.74h63.84c6.4,0,11.5-5.35,11.18-11.74l-3.57-72.96
				C139.36,68.72,136.32,65.82,132.63,65.82L132.63,65.82z"/>
		</g>
	</g>
	<path class="st1" d="M119.68,143.04h-15.81c-2.76,0-5-2.24-5-5v0c0-2.76,2.24-5,5-5h15.81c2.76,0,5,2.24,5,5v0
		C124.68,140.8,122.45,143.04,119.68,143.04z"/>
</g>
</svg>
