<?xml version="1.0" encoding="utf-8"?>
<!-- Generator: Adobe Illustrator 24.0.2, SVG Export Plug-In . SVG Version: 6.00 Build 0)  -->
<svg version="1.1" id="Layer_2" xmlns="http://www.w3.org/2000/svg" xmlns:xlink="http://www.w3.org/1999/xlink" x="0px" y="0px"
	 viewBox="0 0 200 200" style="enable-background:new 0 0 200 200;" xml:space="preserve">
<style type="text/css">
	.st0{fill:#EEAD54;}
	.st1{fill:#442624;}
</style>
<g>
	<path class="st0" d="M-194.93,86.35c0,0,2.57-31.65,22.07-41.93s31.71-20.14,52.07-12.86s42,21.43,48.64,53.14L-194.93,86.35z"/>
	<g>
		<path class="st1" d="M-134.57,35.67c27.29,0,50.06,19.73,54.78,45.68h-109.56C-184.63,55.4-161.86,35.67-134.57,35.67
			 M-134.57,25.67c-36.27,0-65.68,29.4-65.68,65.68h131.36C-68.89,55.07-98.3,25.67-134.57,25.67L-134.57,25.67z"/>
	</g>
	<g>
		<path class="st1" d="M-60.34,81.35H-208.8c-2.76,0-5,2.24-5,5v0c0,2.76,2.24,5,5,5h148.46c2.76,0,5-2.24,5-5v0
			C-55.34,83.59-57.58,81.35-60.34,81.35z"/>
	</g>
	<g>
		<path class="st1" d="M-94.29,68.92h-48.3c-2.76,0-5,2.24-5,5v0c0,2.76,2.24,5,5,5h48.3c2.76,0,5-2.24,5-5v0
			C-89.29,71.16-91.52,68.92-94.29,68.92z"/>
	</g>
	<g>
		<path class="st1" d="M-127.55,27.81h-14.04v-1.79c0-3.88,3.14-7.02,7.02-7.02h0c3.88,0,7.02,3.14,7.02,7.02V27.81z"/>
	</g>
</g>
<g>
	<g>
		<path class="st0" d="M83.33,141.55c-16.14,0-29.28-13.13-29.28-29.28V87.27h91.89v25.01c0,16.14-13.13,29.28-29.28,29.28H83.33z"
			/>
		<path class="st1" d="M140.95,92.27v20.01c0,13.39-10.89,24.28-24.28,24.28H83.33c-13.39,0-24.28-10.89-24.28-24.28V92.27H140.95
			 M150.95,82.27H49.05v30.01c0,18.93,15.35,34.28,34.28,34.28h33.34c18.93,0,34.28-15.35,34.28-34.28V82.27L150.95,82.27z"/>
	</g>
	<g>
		<path class="st1" d="M150.58,94.48H49.42c-3.37,0-6.11-2.73-6.11-6.11v0c0-3.37,2.73-6.11,6.11-6.11h101.16
			c3.37,0,6.11,2.73,6.11,6.11v0C156.69,91.75,153.95,94.48,150.58,94.48z"/>
	</g>
	<g>
		<path class="st1" d="M125.3,63.45c2.69,0,4.88,2.19,4.88,4.87v16.16H69.82V68.32c0-2.69,2.19-4.87,4.88-4.87H125.3 M125.3,53.45
			H74.7c-8.22,0-14.87,6.66-14.87,14.87v26.16h80.36V68.32C140.18,60.11,133.52,53.45,125.3,53.45L125.3,53.45z"/>
	</g>
</g>
<g>
	<g>
		<g>
			<path class="st1" d="M-91.45-104.21c2.46,0,4.46,2,4.46,4.46v12.18h-8.93v-12.18C-95.92-102.21-93.92-104.21-91.45-104.21
				 M-91.45-114.21L-91.45-114.21c-7.99,0-14.46,6.48-14.46,14.46v22.18h28.93v-22.18C-76.99-107.74-83.47-114.21-91.45-114.21
				L-91.45-114.21z"/>
		</g>
	</g>
	<g>
		<path class="st0" d="M-123.37-5c-1.71,0-3.31-0.68-4.49-1.92c-1.18-1.24-1.79-2.87-1.7-4.58l3.57-72.96
			c0.05-1.02,0.89-1.82,1.91-1.82h65.25c1.02,0,1.87,0.8,1.92,1.82l3.57,72.96c0.08,1.71-0.52,3.34-1.7,4.58S-57.82-5-59.53-5
			H-123.37z"/>
		<g>
			<path class="st1" d="M-61.76-81.29l3.42,70.03c0.02,0.34-0.09,0.64-0.33,0.88C-58.9-10.13-59.19-10-59.53-10h-63.84
				c-0.34,0-0.63-0.13-0.87-0.37c-0.23-0.25-0.35-0.54-0.33-0.88l3.42-70.03H-61.76 M-58.83-91.29h-65.25
				c-3.69,0-6.73,2.89-6.91,6.58l-3.57,72.96C-134.87-5.35-129.77,0-123.37,0h63.84c6.4,0,11.5-5.35,11.18-11.74l-3.57-72.96
				C-52.1-88.39-55.14-91.29-58.83-91.29L-58.83-91.29z"/>
		</g>
	</g>
	<path class="st1" d="M-71.77-14.07h-15.81c-2.76,0-5-2.24-5-5v0c0-2.76,2.24-5,5-5h15.81c2.76,0,5,2.24,5,5v0
		C-66.77-16.31-69.01-14.07-71.77-14.07z"/>
</g>
</svg>
